<svg xmlns="http://www.w3.org/2000/svg" viewBox="0 0 80 120">
  <defs>
    <linearGradient id="suitPurple" x1="0%" y1="0%" x2="0%" y2="100%">
      <stop offset="0%" style="stop-color:#DA70D6"/>
      <stop offset="100%" style="stop-color:#BF40FF"/>
    </linearGradient>
    <filter id="glowPurple2" x="-20%" y="-20%" width="140%" height="140%">
      <feGaussianBlur stdDeviation="2" result="blur"/>
      <feMerge>
        <feMergeNode in="blur"/>
        <feMergeNode in="SourceGraphic"/>
      </feMerge>
    </filter>
  </defs>

  <!-- Hair -->
  <path d="M20 35 Q18 20 25 12 Q35 5 45 5 Q55 5 60 15 Q65 25 62 35 L62 45 L55 42 L55 25 Q50 15 40 15 Q30 15 27 28 L25 42 L20 45 Z" fill="#2A1A0A"/>

  <!-- Head -->
  <ellipse cx="40" cy="32" rx="15" ry="17" fill="#FFE0BD"/>

  <!-- Earrings -->
  <circle cx="23" cy="35" r="3" fill="#FFD700" filter="url(#glowPurple2)"/>
  <circle cx="57" cy="35" r="3" fill="#FFD700" filter="url(#glowPurple2)"/>

  <!-- Eyes -->
  <ellipse cx="34" cy="30" rx="3" ry="2.5" fill="white"/>
  <ellipse cx="46" cy="30" rx="3" ry="2.5" fill="white"/>
  <circle cx="34" cy="30" r="1.5" fill="#4A2A1A"/>
  <circle cx="46" cy="30" r="1.5" fill="#4A2A1A"/>

  <!-- Eyelashes -->
  <path d="M30 28 L32 27 M33 27 L34 26 M35 27 L37 27" stroke="#1A0A0A" stroke-width="0.8"/>
  <path d="M43 27 L45 26 M46 27 L47 26 M48 27 L50 28" stroke="#1A0A0A" stroke-width="0.8"/>

  <!-- Eyebrows -->
  <path d="M31 26 Q34 24 37 26" fill="none" stroke="#2A1A0A" stroke-width="1"/>
  <path d="M43 26 Q46 24 49 26" fill="none" stroke="#2A1A0A" stroke-width="1"/>

  <!-- Nose -->
  <path d="M40 32 L39 36 L41 36" fill="none" stroke="#E0C0A0" stroke-width="1"/>

  <!-- Lips -->
  <path d="M36 40 Q40 43 44 40" fill="#C04060" stroke="#A03050" stroke-width="0.5"/>

  <!-- Blazer -->
  <path d="M20 50 L28 45 L40 48 L52 45 L60 50 L60 88 L20 88 Z" fill="url(#suitPurple)" filter="url(#glowPurple2)"/>

  <!-- Lapels -->
  <path d="M28 45 L35 55 L40 50 L45 55 L52 45" fill="#1A0A1A" stroke="none"/>

  <!-- Blouse -->
  <path d="M35 50 L40 55 L45 50 L45 65 L35 65 Z" fill="white"/>

  <!-- Necklace -->
  <path d="M32 48 Q40 52 48 48" fill="none" stroke="#FFD700" stroke-width="1.5"/>
  <circle cx="40" cy="52" r="3" fill="#BF40FF" stroke="#FFD700" stroke-width="1"/>

  <!-- Skirt -->
  <path d="M25 88 L22 115 L58 115 L55 88 Z" fill="url(#suitPurple)"/>

  <!-- Legs -->
  <rect x="30" y="100" width="8" height="15" fill="#FFE0BD"/>
  <rect x="42" y="100" width="8" height="15" fill="#FFE0BD"/>

  <!-- Heels -->
  <path d="M28 115 L40 115 L40 118 L35 118 L33 120 L28 120 Z" fill="#1A0A1A"/>
  <path d="M40 115 L52 115 L52 120 L47 120 L45 118 L40 118 Z" fill="#1A0A1A"/>

  <!-- Phone in hand -->
  <rect x="58" y="70" width="10" height="18" rx="2" fill="#1A1A2A"/>
  <rect x="59" y="72" width="8" height="12" fill="#00FFFF" opacity="0.5"/>
</svg>
